<svg xmlns="http://www.w3.org/2000/svg" xmlns:xlink="http://www.w3.org/1999/xlink" viewBox="0 0 329.52 500"><defs><style>.cls-1{fill:none;}.cls-2{fill:url(#Безымянный_градиент_16);}.cls-3{fill:url(#Безымянный_градиент_16-2);}.cls-4{opacity:0.7;}.cls-5{fill:#fff;}.cls-6{isolation:isolate;}.cls-7,.cls-9{opacity:0.4;}.cls-8,.cls-9{fill:#d6d8e5;}.cls-10{fill:#ffcea9;}.cls-11{fill:#212531;}.cls-12{fill:#1f232d;}.cls-13{fill:#171a22;}.cls-14{fill:#727379;}.cls-15{fill:#1f232b;}.cls-16{fill:#ededed;}.cls-17{fill:#38226d;}.cls-18{fill:#9c73ff;}.cls-19{fill:#8c50ff;}.cls-20{fill:#f4f4f4;}.cls-21{fill:#3a2c6d;}.cls-22{clip-path:url(#clip-path);}.cls-23{fill:#854040;}.cls-24{fill:#e26d6d;}.cls-25{fill:#fe7a7a;}.cls-26{fill:#ff7b7b;}.cls-27{clip-path:url(#clip-path-2);}.cls-28{fill:#2b303f;}.cls-29{fill:#252935;}.cls-30{fill:#d5d7e2;}.cls-31{fill:#c1c4d3;}.cls-32{fill:#653ab8;}.cls-33{fill:#7945dc;}.cls-34{fill:#4b2b89;}</style><linearGradient id="Безымянный_градиент_16" x1="237.24" y1="29.5" x2="232.45" y2="230.77" gradientUnits="userSpaceOnUse"><stop offset="0" stop-color="#6c1fc7"/><stop offset="0.33" stop-color="#d0115e"/><stop offset="0.7" stop-color="#ef4b37"/><stop offset="1" stop-color="#f4ab43"/></linearGradient><linearGradient id="Безымянный_градиент_16-2" x1="225.9" y1="29.23" x2="221.11" y2="230.5" xlink:href="#Безымянный_градиент_16"/><clipPath id="clip-path"><path class="cls-1" d="M81.1,164.44l5.55-3.23-.45.27h0l-5.55,3.23v0Z"/></clipPath><clipPath id="clip-path-2"><path class="cls-1" d="M83.8,86.17,89.36,83l-.45.26h0l-5.56,3.23h0Z"/></clipPath></defs><title>Instagram_SVG</title><g id="Слой_2" data-name="Слой 2"><g id="Слой_1-2" data-name="Слой 1"><path class="cls-2" d="M329.51,114.74c0-.3,0-.6,0-.9l0-.41c0-.06,0-.12,0-.18s0-.21,0-.32c0-.3-.07-.61-.1-.91s-.09-.63-.14-.94V111l-.15-.88c-.06-.32-.13-.65-.2-1a3.59,3.59,0,0,0-.08-.35c0-.07,0-.14-.05-.2s-.06-.29-.1-.43c-.08-.33-.17-.66-.26-1l-.21-.73s0-.09,0-.13a.65.65,0,0,0,0-.13c-.09-.32-.2-.64-.31-1s-.21-.63-.33-1a1.34,1.34,0,0,0-.07-.18.58.58,0,0,0-.05-.14c-.07-.2-.14-.4-.22-.59s-.24-.61-.37-.91-.18-.44-.28-.66a1.17,1.17,0,0,0-.05-.11.61.61,0,0,0,0-.12c-.13-.31-.27-.61-.41-.91l-.48-1a1.09,1.09,0,0,0-.08-.15,1.74,1.74,0,0,0-.1-.19c-.13-.26-.26-.52-.4-.78s-.36-.64-.54-1L324,97.1l-.11-.19c-.16-.27-.34-.54-.51-.81s-.5-.82-.76-1.21l-.12-.19c-.38-.58-.78-1.14-1.18-1.69-.27-.37-.55-.73-.83-1.09l-.71-.87h0l-.72-.84-.73-.81-.13-.13-.13-.14-.51-.53c-.26-.27-.52-.53-.79-.78a2.73,2.73,0,0,0-.25-.23l-.18-.18L316,87c-.27-.24-.55-.49-.83-.72l-.37-.31-.19-.15-.27-.22c-.28-.22-.55-.43-.83-.63l-.6-.43-.11-.08-.1-.07c-.26-.18-.53-.35-.8-.52l-.79-.49-.18-.11L171,2.57l-.6-.34-.76-.39-.5-.23-.12-.06-.14-.07-.75-.32-.76-.28-.12,0-.12,0-.51-.17c-.26-.08-.51-.15-.77-.21l-.37-.08-.16,0-.24,0L164.3.11l-.49,0h-.17l-.17,0c-.29,0-.59,0-.88,0l-.37,0h-.29l-.31,0a9.5,9.5,0,0,0-1.07.15h0a2,2,0,0,0-.23.06,9.19,9.19,0,0,0-1.06.29l-.08,0a9.37,9.37,0,0,0-1.44.66L140,11.58a9.72,9.72,0,0,1,1.43-.66,10.86,10.86,0,0,1,1.15-.33l.22-.06a10.71,10.71,0,0,1,1.4-.18h.3a11.34,11.34,0,0,1,1.42,0l.17,0a14.52,14.52,0,0,1,1.55.23l.16,0a15.77,15.77,0,0,1,1.65.46l.11,0c.59.2,1.18.44,1.78.71l.12.06q.92.42,1.86,1L293.12,93.63c.63.36,1.25.76,1.87,1.19l.11.07c.57.41,1.14.83,1.7,1.28l.18.16c.54.44,1.07.9,1.59,1.39a1.54,1.54,0,0,1,.19.17c.53.49,1,1,1.55,1.55l.13.13c.54.58,1.07,1.18,1.58,1.79v0a43.63,43.63,0,0,1,2.84,3.83c.26.4.51.81.76,1.21s.42.67.62,1c.09.16.17.33.27.49.32.57.64,1.15.94,1.74,0,.07.07.13.1.19.36.72.7,1.44,1,2.17l.05.11q.47,1.06.87,2.16l.05.14c.27.74.52,1.49.75,2.23a.65.65,0,0,0,0,.13c.21.72.4,1.43.57,2.15,0,.07,0,.13,0,.2.17.74.31,1.47.43,2.2v0c.12.74.21,1.47.27,2.2a1.09,1.09,0,0,1,0,.18q.09,1.09.09,2.16l-.45,160.48c0,.71,0,1.39-.1,2.05,0,.06,0,.12,0,.18-.06.6-.15,1.18-.25,1.74,0,.08,0,.15-.05.23-.11.54-.25,1.06-.4,1.55l-.09.27c-.16.47-.33.92-.52,1.34a.94.94,0,0,0-.06.15,11.9,11.9,0,0,1-.76,1.36c0,.05-.08.1-.11.16a10.09,10.09,0,0,1-.73,1c-.09.11-.19.21-.28.31a9.08,9.08,0,0,1-.71.68l-.3.26a8.08,8.08,0,0,1-1.08.76l17.76-10.33a8,8,0,0,0,1.08-.75,3.88,3.88,0,0,0,.31-.26c.24-.21.47-.44.7-.68l.29-.32a11.82,11.82,0,0,0,.72-.95l.12-.17,0,0a12.07,12.07,0,0,0,.71-1.28l0-.05.06-.14c.13-.28.25-.57.37-.88.05-.14.1-.3.15-.46l.09-.27a2.41,2.41,0,0,0,.08-.25c.09-.31.18-.63.25-.95,0-.12.05-.24.07-.36s0-.14.05-.22.05-.22.07-.34c.05-.29.09-.59.13-.89s0-.34.05-.51a1.1,1.1,0,0,0,0-.18,1.49,1.49,0,0,0,0-.21c0-.29,0-.59.06-.89s0-.59,0-.9v-.05l.45-160.48C329.52,115.31,329.52,115,329.51,114.74Z"/><path class="cls-3" d="M293.12,93.63c10.32,6,18.67,20.41,18.64,32.28l-.45,160.48c0,11.87-8.44,16.66-18.77,10.69L152.7,216.35c-10.33-6-18.68-20.43-18.65-32.3l.46-160.48c0-11.87,8.44-16.64,18.77-10.68Z"/><g class="cls-4"><path class="cls-5" d="M312.88,286.39h-3.15l.46-160.47c0-11.35-8-25.21-17.86-30.92L152.49,14.25l1.57-2.72L293.9,92.26c10.75,6.21,19.47,21.31,19.44,33.65Z"/></g><g class="cls-6"><path class="cls-5" d="M223.18,140.33c11.52,6.65,19.8,22,19.88,33.93.22,13.14-8.81,17.79-19.05,12.35l-.86-.47c-11.13-6.43-19.55-21.44-19.89-33.46-.39-13.39,8.61-18.77,19.75-12.45Z"/><path class="cls-5" d="M268,158.52q-.06,27.09-.16,54.17c0,5-1.4,8.83-3.93,11.48-3.81,4-9.07,4.49-15.61,1.66a24.37,24.37,0,0,1-2.58-1.33l-28.1-16.2-18.14-10.49a41.73,41.73,0,0,1-13.59-13.41A47.22,47.22,0,0,1,178,164.06a53.77,53.77,0,0,1-.24-6.78q0-13.51.1-27c0-7.71,0-15.41.08-23.1.05-7.45,2.43-12.42,7.23-14.69,3.67-1.72,8-1.52,13,1.11,2.22,1.18,4.45,2.44,6.67,3.73,1.17.67,2.33,1.35,3.49,2l2.89,1.68,1.19.68,3.59,2.07,7.18,4.15L238,116.51q4.32,2.49,8.65,5c5.71,3.36,10.62,8.63,14.73,15.54a45.7,45.7,0,0,1,6.44,18.69A23.84,23.84,0,0,1,268,158.52Zm-45,36.2c15.42,8.87,27.65,1.53,27.59-15.95-.06-17.19-12.37-38.3-26.78-46.62l-.6-.34-.58-.34c-14.35-8.29-26.4-1.38-26.92,14.75-.58,17.66,11.93,39.64,27.29,48.5m28.82-45.87c2.75,1.6,4.91.28,4.95-2.82a10.72,10.72,0,0,0-4.61-8.27l-.3-.17-.29-.17c-2.5-1.45-4.54.16-4.63,2.67a10.89,10.89,0,0,0,4.88,8.76"/><path class="cls-5" d="M286.87,159.54q0,35.6-.18,71.12c0,8.39-2.14,14.84-6.46,19.15s-9.9,5.89-16.84,4.56a34.79,34.79,0,0,1-10.74-4.18l-29.89-17.28-19.93-11.5c-3.61-2.09-7.22-4.11-10.84-6.2l-1.54-.9A55.09,55.09,0,0,1,180,206.2a72.71,72.71,0,0,1-8.84-10.36A81.86,81.86,0,0,1,161.56,178a63.64,63.64,0,0,1-3.77-13.81,56,56,0,0,1-.64-7.58c0-12,0-24,.08-36s0-24.28.16-36.34c.08-7.84,2.25-13.8,6.28-17.88,5.52-5.55,12.89-6.69,22.15-3.18a41.05,41.05,0,0,1,5.66,2.72q17.93,10.32,35.86,20.67Q240.2,94,253,101.42c8.27,4.79,15.62,12.14,21.91,21.94a74.12,74.12,0,0,1,11.22,28.18A49.85,49.85,0,0,1,286.87,159.54Zm-11.53,58.07c.11-15.09.12-30.25.16-45.38,0-3.77.05-7.53-.07-11.37a49.38,49.38,0,0,0-3.1-14.81,69.38,69.38,0,0,0-13.24-22.62A49,49,0,0,0,246.86,113l-9.61-5.52-14.16-8.19-12.81-7.39q-5.34-3.08-10.68-6.19A27.43,27.43,0,0,0,189.23,82c-5.76-.72-10.37.9-13.82,4.82-3,3.48-4.82,8.21-4.87,14.47-.13,18.42-.13,36.9-.17,55.38,0,1.15.07,2.37.19,3.6a56,56,0,0,0,2.37,11A69.46,69.46,0,0,0,181,188a64.77,64.77,0,0,0,7.72,9.73,47.69,47.69,0,0,0,9.38,7.78c5,3,10,5.86,15,8.77l2.81,1.63,5.62,3.23,16,9.25,8,4.61a35.49,35.49,0,0,0,6.74,3.06c5.57,1.78,10.39,1.5,14.45-.78a15.18,15.18,0,0,0,6.28-7,24.94,24.94,0,0,0,2.34-10.71"/></g><g class="cls-7"><path class="cls-8" d="M303.78,414.75a15.89,15.89,0,0,1-7.65-1.86L134.32,322.1a8.45,8.45,0,0,1,0-15.3,16.43,16.43,0,0,1,8-2,15.87,15.87,0,0,1,7.64,1.85l161.8,90.78a8.45,8.45,0,0,1,0,15.31A16.22,16.22,0,0,1,303.78,414.75Z"/></g><ellipse class="cls-9" cx="98.24" cy="418.19" rx="21.69" ry="37.57" transform="translate(-330.47 390.85) rotate(-73.13)"/><ellipse class="cls-9" cx="271.37" cy="476.55" rx="21.69" ry="37.57" transform="translate(-263.42 597.95) rotate(-73.13)"/><path class="cls-10" d="M255.55,285.35s-15.28-4.68-20.23-4.68c-7.27-11.48-21.39-24.46-21.39-24.46l-3,4.3s11,23.93,18.7,28.66,25.9,8.25,25.9,8.25Z"/><path class="cls-11" d="M227,258.07l0,8.74a1.66,1.66,0,0,1,0,.32h0a1,1,0,0,1-.09.26h0a1,1,0,0,1-.11.17.1.1,0,0,1,0,.05,1,1,0,0,1-.15.14l.83-.51a.65.65,0,0,0,.16-.13l0-.05.05-.07,0-.1h0l0-.08a.19.19,0,0,0,0-.08.19.19,0,0,0,0-.07v0h0v0a.22.22,0,0,1,0-.08v-.07a.15.15,0,0,0,0-.07v-.07h0l0-8.74Z"/><path class="cls-12" d="M227.81,257.5v-.07a.17.17,0,0,0,0-.07v-.07a.22.22,0,0,1,0-.08h0a.64.64,0,0,0,0-.07s0-.06,0-.08l0-.08s0-.05,0-.08l0-.06h0l0-.08a.19.19,0,0,0,0-.07l0-.08,0-.07,0,0h0l0-.07,0-.08-.05-.09,0-.1h0v0a1.74,1.74,0,0,0-.11-.18l-.09-.13h0l-.06-.08-.06-.07-.05-.07-.06-.07h0l0-.05-.06-.06-.06-.06-.07-.06,0,0h0l0,0-.06,0-.07,0-.06,0-.06,0h0L209.3,244.76l-.05,0-.06,0-.05,0-.06,0-.06,0H209l-.06,0-.06,0h-.35l-.1,0-.12.06-.83.5a.6.6,0,0,1,.21-.08h0a.92.92,0,0,1,.24,0h0a1.31,1.31,0,0,1,.27.06h0a2.53,2.53,0,0,1,.29.14l17.07,10.23a1.94,1.94,0,0,1,.29.21h0a3.19,3.19,0,0,1,.26.26h0l.24.31h0l.21.33v0l.17.34h0c0,.12.09.24.13.37h0a2.45,2.45,0,0,1,.08.37h0a2.28,2.28,0,0,1,0,.36l.83-.5Z"/><path class="cls-13" d="M225.54,255.49a3.33,3.33,0,0,1,1.44,2.58l0,8.74c0,.95-.65,1.33-1.45.85l-17.08-10.23a3.29,3.29,0,0,1-1.43-2.58l0-8.73c0-1,.65-1.34,1.45-.86Z"/><g class="cls-6"><path class="cls-14" d="M224.66,256.38a1.4,1.4,0,0,1,.62,1.11c0,.41-.28.57-.62.37a1.43,1.43,0,0,1-.62-1.11C224,256.34,224.32,256.17,224.66,256.38Z"/><path class="cls-15" d="M225.4,255.76a2.7,2.7,0,0,1,1.16,2.09l0,8.73c0,.76-.53,1.07-1.17.69l-16.52-9.9a2.66,2.66,0,0,1-1.16-2.08l0-8.73c0-.77.52-1.07,1.16-.69Zm-4.25,0c.34.21.62,0,.62-.36a1.42,1.42,0,0,0-.62-1.11c-.34-.21-.62,0-.62.36a1.42,1.42,0,0,0,.62,1.11m3.51,2.11c.34.2.62,0,.62-.37a1.4,1.4,0,0,0-.62-1.11c-.34-.21-.62,0-.62.37a1.43,1.43,0,0,0,.62,1.11m-1.76-1.06c.35.21.63.05.63-.36a1.42,1.42,0,0,0-.62-1.11c-.35-.21-.62,0-.62.36a1.39,1.39,0,0,0,.61,1.11"/></g><path class="cls-14" d="M222.91,255.33a1.42,1.42,0,0,1,.62,1.11c0,.41-.28.57-.63.36a1.39,1.39,0,0,1-.61-1.11C222.29,255.29,222.56,255.12,222.91,255.33Z"/><path class="cls-14" d="M221.15,254.28a1.42,1.42,0,0,1,.62,1.11c0,.41-.28.57-.62.36a1.42,1.42,0,0,1-.62-1.11C220.53,254.24,220.81,254.07,221.15,254.28Z"/><path class="cls-10" d="M211,260.51s-6.31-4.31-6.55-6.94a13.08,13.08,0,0,1,.76-5.37c.28-.78.43-1.73,1.26-2.11a1.71,1.71,0,0,1,1.59.32,27.88,27.88,0,0,1,2.53,1.82c1.08.79,2.21,1.52,3.33,2.28.46.31,3,1.7,2.32,2.45-1.19,1.33-3.34-.43-4.49-1a21.65,21.65,0,0,1-4-2.53c.06.08.08.43.15.57a3.1,3.1,0,0,0,.44.65,7.07,7.07,0,0,0,1.25.92c.67.44,1.4.82,2.12,1.22a16.77,16.77,0,0,1,2.61,1.47.7.7,0,0,1,0,1.1c-.32.29-1,.2-1.37.12a15.73,15.73,0,0,1-1.52-.47,13.5,13.5,0,0,1-2.09-.94,16.5,16.5,0,0,1-1.64-1.15,4,4,0,0,0,.16.58,2.86,2.86,0,0,0,.68.71c.44.38.93.68,1.38,1,.92.72,2.18.84,3.08,1.59a.55.55,0,0,1,0,.88c-.22.21-.71.19-1,.2a6.31,6.31,0,0,1-2.38-.68,10,10,0,0,1-1.38-.71,5.25,5.25,0,0,1-.89-.56c.36.65,5.2,3.88,5.2,3.88Z"/><path class="cls-16" d="M245.63,296.36s-2.42-9.09,3.16-15c1.23-.6,16,4.78,16,4.78s7.46,4.27,4,9.87S245.63,296.36,245.63,296.36Z"/><path class="cls-17" d="M294.46,467.67c-2.83,2.3-7,.19-7.22.41a127.91,127.91,0,0,1-10.46,8.7c-1.77,1.4-4.52,3.25-4,5.93.9,4.77,8.54,3.3,11.43,1.84s5.24-3.88,8-5.58c1.94-1.21,3.86-1.83,4.16-4.29C296.5,473.19,295,467.61,294.46,467.67Z"/><path class="cls-18" d="M296.28,473.69c-.38,2.35-2.27,3-4.2,4.2-2.78,1.72-5.22,4.21-8.1,5.67-2.67,1.35-9.32,2.69-11.19-.72,1,4.6,8.53,3.16,11.39,1.71s5.24-3.88,8-5.58c1.94-1.21,3.86-1.83,4.16-4.29A5,5,0,0,0,296.28,473.69Z"/><path class="cls-17" d="M269.86,458.52c-2.83,2.31-7.79-.21-8,0a108.1,108.1,0,0,1-9.34,8.44c-1.77,1.39-4.53,3.25-4,5.92.89,4.77,8.54,3.3,11.43,1.84s5.24-3.88,8-5.57c1.94-1.21,3.86-1.84,4.16-4.3C272.23,463.37,270.37,458.46,269.86,458.52Z"/><path class="cls-18" d="M272,464.2c-.38,2.35-2.27,3-4.2,4.2-2.78,1.72-5.22,4.21-8.1,5.67-2.67,1.35-9.31,2.69-11.19-.72,1,4.6,8.53,3.16,11.39,1.71s5.24-3.88,8-5.58c1.94-1.21,3.86-1.83,4.16-4.29A5,5,0,0,0,272,464.2Z"/><path class="cls-19" d="M294.63,363c-.14,4.28-1.48,22.9-2.07,32.75s-.73,21.93-.73,21.93,1.7,7.18,2.8,15.62,0,35.07,0,35.07a6.74,6.74,0,0,1-7.26,0s-4.54-21.32-6.64-30.92-2.46-15.14-3.55-21.09c-1.32-7.2-4.17-40.8-4.17-40.8l-1.13.06-3,37.93a42.55,42.55,0,0,1,1.92,8.61c.82,6.18-.87,37.27-.87,37.27a7.53,7.53,0,0,1-7.85-.32s-7.58-41.17-7.58-47.44c0-4.14.71-58.78.71-58.78Z"/><path class="cls-10" d="M284.35,280.19s-.48,9.35-.27,10.18,4.29,3.56,5.48,4.55-6.46,8.52-10.18,10.23-15.51-2.79-15.72-8.58,2-10.65,3.83-10.91S284.35,280.19,284.35,280.19Z"/><path class="cls-20" d="M285.39,292s-6.78,10.1-16.24,11c-3-2.93-3.25-13.4.88-16.74,0,0-3.8-3.07-6.39-2.47a13.4,13.4,0,0,0-5.85,7.45,61.2,61.2,0,0,0-3.33,21.63c.16,9.92,0,40.21,0,40.21s1.33,6.41,9.88,11.18,14.92,5.23,20.72,3.88c4.79-1.12,8.75-2.81,10.4-6.28-.43-6.95-3.53-25.09-2.37-33.83s3-15.26,3.48-22.33-.93-6.92-4.47-9.44A56.43,56.43,0,0,0,285.39,292Z"/><path class="cls-10" d="M279.71,370.55c1.53-.89,2.6-2.14,4.84-3.22,2-.95,3.36-1.36,4.72-2.88s3.08-7.68,4.54-13.5a58.71,58.71,0,0,0,.84-19.92c-1.32-7.93-4.94-18.9-6-23.45s.32-6.47,2.34-8.31c2.38-2.16,5.9-1.51,8.19,4.81a124.63,124.63,0,0,1,5.95,27,62.23,62.23,0,0,1-1.77,20.36c-1.52,6.16-3.75,10.68-6.62,16.35-.78,1.54-1,2.88-2.12,6a20.62,20.62,0,0,1-5.35,8.22c-2.15,1.77-3.2,2.07-3.75,1.79s-.6-1.07.29-2a16.94,16.94,0,0,0,3.71-4.78s-1.84,2.11-3.05,3.28a16.92,16.92,0,0,1-3.6,2.65c-1.28.67-3.18-.33-2.31-1.27s1.8-1.45,3.57-3.2a16.7,16.7,0,0,0,2.47-3.08,31.28,31.28,0,0,1-4,3,7,7,0,0,1-3.74,1.28c-.7,0-1.61-.89-.37-1.93s2.92-1.62,4.76-3.73c1.34-1.52,2.08-2.79,1.67-2.79s-1.13,1-2.78,1.6-3.49.29-3.77-.63S278.19,371.44,279.71,370.55Z"/><path class="cls-10" d="M263.2,266.26h0c1.12-7.25,6.34-12.75,13.82-12.33a14.42,14.42,0,0,1,13.61,15.21,14.28,14.28,0,0,1-6.28,11.05,14.23,14.23,0,0,1-1.16,3.17c-2.64,3.1-10.64,5-12.94,4.68-2.95-.42-4.55-1.65-6-4.88C261.81,277.46,262.59,269.85,263.2,266.26Z"/><path class="cls-21" d="M284.35,280.19h0l-.68-6.33s5.17-13.39-7.05-10.82c-8.07,1.7-10.09,2.44-12.55-3s6.21-10.28,16.48-8.93a14.21,14.21,0,0,1,12.72,14.41C293,269.53,291.94,277.59,284.35,280.19Z"/><path class="cls-16" d="M305.27,316.52s-6.67,6.63-14.56,4.72c-1.13-.76-3.84-16.27-3.84-16.27s0-8.59,6.59-8.36S305.27,316.52,305.27,316.52Z"/><g class="cls-6"><g class="cls-22"><path class="cls-23" d="M81.1,164.44l5.55-3.23-.45.27h0l-5.55,3.23v0l.46-.26"/></g></g><path class="cls-24" d="M76.27,142.36l5.56-3.22,0,0-.3-.44-.24-.3-.22-.27a2.09,2.09,0,0,0-.14-.17l0,0-.06-.06-.24-.26a3.45,3.45,0,0,0-.26-.28L80,137l-.16-.15-.12-.11-.27-.23a2.75,2.75,0,0,0-.26-.22l-.19-.14,0,0,0,0-.26-.18-.25-.16-.25-.16-.06,0-.19-.11-.24-.12-.15-.07,0,0-.06,0-.25-.1L77,135h0l-.22-.07-.25-.07-.08,0h0l-.13,0-.27,0h-.89l-.27,0H74.7l-.42.12h0a2.62,2.62,0,0,0-.48.22l-5.55,3.23a2.86,2.86,0,0,1,.47-.22,3.45,3.45,0,0,1,.46-.12h0a3,3,0,0,1,.43-.05h.09a2.5,2.5,0,0,1,.47,0h.07a4.37,4.37,0,0,1,.5.09h.06a4.21,4.21,0,0,1,.55.16h0l.58.23,0,0a5.34,5.34,0,0,1,.58.3,8.38,8.38,0,0,1,.86.56l0,0c.28.22.56.45.84.71a12.34,12.34,0,0,1,1,1l0,0A12.42,12.42,0,0,1,76.27,142.36Z"/><polygon class="cls-25" points="76.27 142.36 81.83 139.14 81.97 139.37 76.42 142.6 76.27 142.36"/><path class="cls-24" d="M93.71,150.69c0-.17,0-.34,0-.51v-.25c0-.1,0-.21,0-.31s0-.33,0-.5,0-.27,0-.4v-.05c0-.13,0-.27,0-.4l-.06-.39-.06-.36a.13.13,0,0,1,0-.06v0c0-.08,0-.17,0-.25s0-.23-.08-.34l-.09-.33-.09-.32v-.05a2.41,2.41,0,0,0-.08-.25,2.47,2.47,0,0,0-.1-.29,2.33,2.33,0,0,0-.11-.28,2.33,2.33,0,0,0-.11-.28,1.6,1.6,0,0,0-.1-.23l0-.05c-.05-.13-.11-.25-.16-.37l-.18-.37-.06-.11,0-.08-.11-.21-.3-.55,0,0c-.08-.14-.17-.28-.26-.42l-.23-.37,0,0-.06-.09-.25-.35-.24-.31,0,0,0,0c-.06-.07-.11-.14-.17-.2l-.21-.25-.21-.23h0l-.23-.24-.25-.24-.13-.12,0-.05-.08-.07-.26-.23-.28-.23,0,0,0,0a1.84,1.84,0,0,0-.22-.17l-.29-.21L88,139l-.12-.07c-.1-.06-.2-.13-.3-.18l-.07,0-.21-.12-.27-.14-.11,0,0,0-.1-.05-.25-.1-.21-.08h0L86,138l-.24-.07h-.1l-.14,0-.24,0h-.8a1.88,1.88,0,0,0-.33,0h0l-.1,0a1.38,1.38,0,0,0-.29.08l0,0a3.16,3.16,0,0,0-.5.22l-5.55,3.23a3.22,3.22,0,0,1,.5-.23,1.78,1.78,0,0,1,.33-.09l.1,0a3.25,3.25,0,0,1,.45-.06h.08a3.38,3.38,0,0,1,.45,0h.06a2.94,2.94,0,0,1,.49.08h0a4.21,4.21,0,0,1,.55.16h0a5,5,0,0,1,.55.23l.06,0,.59.31.49.3c.24.16.47.33.7.51l0,0c.22.17.44.36.65.55l.05,0c.21.19.41.4.61.61h0c.2.22.4.44.58.68l0,0q.25.33.51.69l.06.08.26.42c.09.14.18.27.26.42s.3.52.44.79l0,.08c.15.29.29.59.42.89a13.86,13.86,0,0,1,.5,1.34h0c.13.44.23.86.32,1.28v0c.08.42.14.83.18,1.24v0c0,.41.06.82.06,1.22a8.75,8.75,0,0,1,0,.89v.13c0,.27,0,.54-.08.8a.25.25,0,0,1,0,.08c0,.22-.07.45-.11.66s0,.14,0,.21-.09.37-.13.55l-.06.19c0,.14-.08.27-.12.4l-.12.36s0,.11-.07.17c-.09.23-.18.45-.28.67l-.11.23c-.16.32-.32.63-.5.92s-.36.54-.54.81-.22.32-.34.47-.35.42-.53.63-.23.27-.35.39-.43.42-.65.62-.2.2-.31.29c-.34.28-.68.55-1,.8s-.76.49-1.14.71l5.55-3.22c.39-.23.77-.46,1.14-.72a11.49,11.49,0,0,0,1-.8l.32-.29c.22-.2.44-.4.64-.61l.35-.4c.18-.2.36-.41.53-.63s.23-.31.34-.47.26-.34.37-.52l.17-.28c.18-.3.34-.61.5-.93l.06-.11a1.17,1.17,0,0,1,0-.11c.1-.22.19-.45.28-.68l.06-.13v0l.12-.35c0-.12.08-.23.11-.35s0,0,0-.05,0-.13,0-.19.07-.27.1-.41l0-.15a1.42,1.42,0,0,0,0-.2,1.89,1.89,0,0,0,.05-.23l.06-.44s0-.05,0-.08v0c0-.17,0-.34,0-.52s0-.16,0-.24,0-.09,0-.14A.62.62,0,0,1,93.71,150.69Z"/><path class="cls-26" d="M82,141.89l.49.3A13,13,0,0,1,87.09,148a12.65,12.65,0,0,1,1.07,5.14,11.36,11.36,0,0,1-1.65,6.26,12.93,12.93,0,0,1-3.76,4c-.68.47-1.41.85-2.11,1.27a.59.59,0,0,1-.66,0,2.22,2.22,0,0,1-.37-.29,67.07,67.07,0,0,1-6.06-6.76,44,44,0,0,1-4.66-7.16,22.89,22.89,0,0,1-2.25-6.22c-.47-2.47-.13-4.31,1-5.46s3-1.08,4.92,0a9.35,9.35,0,0,1,1.73,1.29,13,13,0,0,1,1.94,2.26l.15.24c.19-.21.36-.4.53-.57C78.21,140.77,79.89,140.7,82,141.89Z"/><g class="cls-6"><g class="cls-27"><path class="cls-23" d="M83.8,86.17,89.36,83l-.45.26h0l-5.56,3.23h0l.45-.27"/></g></g><path class="cls-24" d="M79,64.1l5.55-3.23v0c-.1-.15-.2-.29-.31-.43a3.55,3.55,0,0,0-.23-.31l-.22-.27c-.05-.05-.09-.11-.14-.17l0,0-.06-.07-.24-.26L83,59l-.29-.28-.16-.15-.13-.12-.26-.23-.26-.21-.19-.15,0,0,0,0c-.09-.06-.17-.13-.26-.18l-.25-.17-.25-.15-.06,0-.19-.1-.25-.13L80.28,57l0,0-.06,0-.25-.1a1.84,1.84,0,0,0-.25-.09h0l-.22-.07-.25-.07H79.1l-.06,0-.12,0-.27,0h-.89a1.35,1.35,0,0,0-.28,0h-.07a2.17,2.17,0,0,0-.42.11h0a4,4,0,0,0-.47.21L71,60.1a2.86,2.86,0,0,1,.47-.22,3.45,3.45,0,0,1,.46-.12h.05a3,3,0,0,1,.43,0h.09a3.77,3.77,0,0,1,.47,0H73a3.05,3.05,0,0,1,.5.08h.06a5.52,5.52,0,0,1,.54.16h0a5.36,5.36,0,0,1,.58.23l0,0,.58.3c.28.17.57.36.86.57l0,0a10.86,10.86,0,0,1,.85.7,14.07,14.07,0,0,1,1,1l0,0A12.64,12.64,0,0,1,79,64.1Z"/><polygon class="cls-25" points="78.98 64.1 84.53 60.87 84.68 61.1 79.13 64.33 78.98 64.1"/><path class="cls-24" d="M96.41,72.43c0-.17,0-.34,0-.52a2.18,2.18,0,0,0,0-.25v-.31c0-.16,0-.33,0-.5a2.69,2.69,0,0,0,0-.4v0c0-.14,0-.27,0-.41s0-.26,0-.38l-.06-.37s0,0,0-.06v0a1.84,1.84,0,0,1-.05-.25c0-.11,0-.22-.08-.34L96,68.24l-.09-.32v-.06c0-.08,0-.16-.08-.25s-.07-.19-.1-.29-.07-.19-.11-.28-.07-.18-.11-.27a2.44,2.44,0,0,0-.1-.24l0,0c0-.12-.11-.25-.17-.37s-.11-.24-.17-.37l-.06-.1,0-.09-.11-.21-.3-.54,0,0c-.08-.14-.17-.28-.26-.41S94,64.09,94,64l0,0-.06-.08-.25-.35-.24-.31,0,0,0,0-.17-.21a2.62,2.62,0,0,0-.22-.25,2.09,2.09,0,0,0-.2-.22h0a1.75,1.75,0,0,0-.23-.24l-.24-.25-.13-.12,0,0a.27.27,0,0,0-.08-.07l-.26-.24-.28-.22,0,0,0,0L91.18,61l-.29-.2-.19-.13-.12-.07-.3-.19-.07,0L90,60.28l-.27-.14-.11,0-.05,0-.1,0-.25-.11L89,59.83h0l-.24-.08-.24-.06-.06,0h0l-.14,0-.24,0h-.8l-.33,0h0l-.1,0-.29.08,0,0a2.5,2.5,0,0,0-.5.23l-5.55,3.22a3.06,3.06,0,0,1,.49-.22l.34-.1.1,0a3.11,3.11,0,0,1,.44-.06h.6a4.53,4.53,0,0,1,.49.08h0c.18,0,.36.1.55.16h0a4.41,4.41,0,0,1,.56.23l.06,0c.19.09.39.19.59.31s.32.19.48.3a7,7,0,0,1,.71.5l0,0c.22.18.44.36.65.55l0,0c.21.2.41.4.61.61h0c.2.22.39.45.58.68l0,0c.18.22.35.46.52.69a.41.41,0,0,0,.05.09l.27.41c.08.14.18.28.26.42s.3.52.43.79l0,.09c.14.28.28.58.42.89a12.79,12.79,0,0,1,.5,1.33v0a10.27,10.27,0,0,1,.32,1.27v0c.08.41.14.83.18,1.24h0c0,.41.06.82.06,1.22a8.68,8.68,0,0,1,0,.89.66.66,0,0,1,0,.14c0,.27,0,.53-.07.79,0,0,0,.05,0,.08,0,.23-.07.45-.11.67s0,.14,0,.2-.09.37-.14.55a1.46,1.46,0,0,1,0,.2l-.12.39-.12.36c0,.06-.05.11-.07.17-.09.23-.18.46-.29.68l-.11.23c-.15.31-.31.62-.49.92s-.36.54-.54.8l-.34.48c-.17.21-.35.42-.53.62l-.35.4c-.21.21-.43.41-.65.61l-.31.29a13.08,13.08,0,0,1-1,.8c-.37.26-.76.49-1.15.72l5.56-3.23c.38-.23.77-.46,1.14-.71s.7-.52,1-.8l.31-.3c.22-.2.44-.39.65-.61l.35-.4c.18-.2.36-.4.53-.62s.23-.32.34-.48.25-.34.37-.52a2.61,2.61,0,0,0,.17-.28c.18-.3.34-.61.5-.92l.06-.12,0-.11c.1-.22.19-.44.28-.67l.06-.14v0l.12-.35c0-.11.08-.23.11-.35l0,0A1.33,1.33,0,0,1,96,75l.1-.4,0-.15c0-.07,0-.14,0-.21s0-.15,0-.23l.06-.44a.17.17,0,0,0,0-.07v0c0-.17,0-.35,0-.52s0-.17,0-.25a.66.66,0,0,1,0-.14Z"/><path class="cls-26" d="M84.66,63.63q.24.13.48.3a12.91,12.91,0,0,1,4.66,5.83,12.77,12.77,0,0,1,1.07,5.13,11.5,11.5,0,0,1-1.65,6.27,12.9,12.9,0,0,1-3.76,4c-.68.47-1.41.86-2.11,1.28a.61.61,0,0,1-.66,0,1.79,1.79,0,0,1-.37-.29,66.2,66.2,0,0,1-6.07-6.76,44.53,44.53,0,0,1-4.65-7.15A23.13,23.13,0,0,1,69.35,66c-.47-2.47-.14-4.31,1-5.46s3-1.09,4.92,0A9.82,9.82,0,0,1,77,61.83,13.54,13.54,0,0,1,79,64.1l.15.23c.19-.21.36-.4.53-.57C80.92,62.51,82.6,62.44,84.66,63.63Z"/><path class="cls-24" d="M129.4,109.64l0-.1c0-.1-.06-.19-.1-.29a2.31,2.31,0,0,0-.1-.28,2.31,2.31,0,0,0-.1-.28l-.11-.27c0-.06-.05-.13-.08-.19v0l0-.07c0-.09-.08-.19-.13-.28a2.2,2.2,0,0,0-.15-.31c-.06-.12-.12-.25-.19-.37l-.18-.34-.13-.23-.15-.23-.27-.44-.08-.13-.27-.37-.06-.09,0,0c-.08-.12-.17-.23-.25-.33s-.15-.2-.23-.29h0c-.08-.09-.15-.18-.23-.26l-.23-.27a.23.23,0,0,1-.07-.07l0,0-.14-.14a3.19,3.19,0,0,0-.26-.26l-.11-.11-.07-.06-.09-.09-.28-.24-.15-.12-.06,0-.07-.06-.28-.21-.21-.15,0,0,0,0-.26-.17-.25-.16-.06,0-.2-.11-.24-.13-.17-.08h0l0,0-.24-.11-.24-.09-.06,0h0l-.13,0-.25-.06-.19,0h-.06l-.25,0-.26,0h-.68l-.37.05h0l-.14,0-.26.07,0,0a1.92,1.92,0,0,0-.46.21L113.87,105a3.1,3.1,0,0,1,.45-.21l.3-.08.14,0a3.06,3.06,0,0,1,.45-.06h.57a4,4,0,0,1,.59.07h0q.28.06.57.15l0,0a6,6,0,0,1,.59.23l0,0c.2.09.4.2.6.31s.41.25.61.39l0,0c.19.13.38.27.56.42l.06,0c.18.15.36.3.53.46l.06.06c.18.16.35.33.52.51l.05,0c.18.19.35.39.52.6h0l.51.65.06.09c.12.16.23.33.34.5s.19.29.28.44.19.3.27.45a14.79,14.79,0,0,1,.69,1.38v0a12.39,12.39,0,0,1,.51,1.4l.07.25,5.55-3.23Z"/><path class="cls-24" d="M139.08,121.12a2.62,2.62,0,0,0,0-.28v0l0-.34c0-.12,0-.23,0-.35s0-.11,0-.17v-.07s0-.07,0-.11a3.43,3.43,0,0,0-.06-.34l-.06-.34,0,0v0a1.55,1.55,0,0,0-.05-.23c0-.11-.06-.22-.08-.33l-.09-.29h0l-.09-.3c0-.1-.07-.19-.1-.29a2.77,2.77,0,0,1-.1-.26h0a2,2,0,0,0-.11-.26c0-.09-.07-.18-.11-.27l-.12-.27,0,0,0,0-.1-.22-.17-.33-.12-.21-.08-.14-.08-.15-.2-.31c-.09-.14-.17-.29-.27-.43l-.06-.1c-.12-.18-.25-.35-.37-.52l-.08-.11-.24-.3-.27-.34-.26-.31,0,0,0,0-.2-.22-.25-.27-.26-.26-.08-.07,0,0-.14-.14-.26-.23-.26-.2-.14-.11,0,0-.08,0-.24-.17a1.88,1.88,0,0,0-.23-.16l-.23-.14-.06,0-.17-.1-.24-.12-.23-.11h0l-.19-.08-.25-.1-.21-.06h0l-.28-.07-.29-.07H131l-.19,0-.35,0h-.12c-.26,0-.53,0-.83,0l-5.55,3.23.83,0a4.62,4.62,0,0,1,.65.08h.06q.33.06.66.15h0a5.78,5.78,0,0,1,.65.25h0a4.69,4.69,0,0,1,.67.34,8,8,0,0,1,.84.55l0,0c.27.2.53.43.8.67l0,0c.26.25.53.52.79.82l0,0q.41.47.81,1c.18.24.35.49.51.73l.27.43.28.45.08.15c.14.25.27.5.39.76l0,0c.13.28.25.56.36.85h0a6.74,6.74,0,0,1,.3.86h0c.08.28.16.56.22.85v0c.06.28.11.56.16.84v.07c0,.28.07.57.09.85a9.34,9.34,0,0,1,0,1.19v0a5.21,5.21,0,0,1-.18,1v0a7.1,7.1,0,0,1-.31.85l0,.06a6.83,6.83,0,0,1-.44.8,5.77,5.77,0,0,1-2,1.86l5.56-3.23a5.75,5.75,0,0,0,2-1.86l0-.07a5.25,5.25,0,0,0,.39-.7v0l0,0c.06-.13.11-.26.16-.4a3.56,3.56,0,0,0,.13-.39.19.19,0,0,0,0-.07v0l.06-.22.06-.3c0-.1,0-.2,0-.29a1.23,1.23,0,0,1,0-.19v-.09a4.39,4.39,0,0,0,0-.81Z"/><path class="cls-26" d="M118.24,105.38a12.48,12.48,0,0,1,4.4,4.68,13.17,13.17,0,0,1,1.21,2.8l.07.25.83,0a6.07,6.07,0,0,1,2.73.85,11.55,11.55,0,0,1,3.33,3.12,13,13,0,0,1,2.71,6.93,6.2,6.2,0,0,1-1,4,6.44,6.44,0,0,1-4.52,2.76,15.72,15.72,0,0,1-5.9-.13c-1-.19-1.93-.45-2.89-.68a1.27,1.27,0,0,1-.32-.13,1.94,1.94,0,0,1-.7-.8,72.07,72.07,0,0,1-3.89-8.51,37.77,37.77,0,0,1-2.15-7.78,13.44,13.44,0,0,1,.14-5.48c.52-1.88,1.69-2.8,3.48-2.69A5.58,5.58,0,0,1,118.24,105.38Z"/><path class="cls-10" d="M56.83,264.07l.63-.41c2.11-1.38,16.25-10.08,17.63-12.47A139.05,139.05,0,0,0,85,228.76c1.48-4.72,4.11-6.44,7-6.06,3.23.42,4.42,2.77,2.69,7.9-2.17,6.46-4.19,13.29-9.41,21A43,43,0,0,1,80,257.89a56.21,56.21,0,0,1-5.2,4.81c-2.73,2.09-12.23,6.32-15.35,7.76a25.35,25.35,0,0,1-10.1,2.7,3.69,3.69,0,0,1-2.2-.46,2.79,2.79,0,0,1-1.1-2,8,8,0,0,1,.13-2.33A33.08,33.08,0,0,0,56.83,264.07Z"/><path class="cls-21" d="M97.91,189.69c1.69-2.73,14.66-4.52,18.92,6.46,1.61,4.17,1.36,14.81,2.72,21.5s4.54,10.48,5.68,15.9-.72,14.53-13.8,16.13S90.59,246.14,87.5,242s-5.44-12.47-2.23-17.23,5.64-8.62,5.57-14.82Z"/><path class="cls-21" d="M106.47,187.79S96.7,185,90.78,190.25c-5.4,4.83-5,11.39-4.17,14.47S89,212,91.43,212.24,106.47,187.79,106.47,187.79Z"/><path class="cls-16" d="M91.45,240.58s-7.32-1.35-10.34-6.87l6.7-8.28s3.3-4.65,7.81-2.23S98.58,232.47,91.45,240.58Z"/><path class="cls-10" d="M110.19,214.41s-.63,10.88-.44,11.68,4.27,1.57,5.42,2.52-5.92,12-9.51,13.62-14.7-2.54-15.47-8.07c-.71-5.09,3.18-9,4.68-10.42a21.09,21.09,0,0,1,3.06-.08l.33-5.28C103.13,216.84,110.19,214.41,110.19,214.41Z"/><path class="cls-20" d="M111.69,227.15c3,.47,6.55,2.1,7,3.77.56,2,1.77,11.16-.88,18.16s-4.43,11.45-6,14.47c0,0-13.22,5.67-23.89-.94,0,0-.73-7.51-.78-11.52-9.83-8.59-1.43-19.17,6.91-27.39a16.85,16.85,0,0,1,3,0s-7.44,8.79-2.27,13.79C105.94,234.1,108.14,229.13,111.69,227.15Z"/><path class="cls-10" d="M89.87,200.93h0c1.1-7,6.15-12.27,13.36-11.84a13.85,13.85,0,0,1,7,25.32,13.72,13.72,0,0,1-1.11,3.05c-2.55,3-9.33,4.87-11.57,4.89-1.94,0-3.6-1.78-5.42-4.78C88.32,211.31,89.27,204.38,89.87,200.93Z"/><path class="cls-21" d="M105.46,189.21c5.06,1,9.21,2.42,10.58,7.38.95,3.42,2.18,9.94,1,12.68l-.72,2-6.13,3.15s-2.85-2.38-2-9.36a5.09,5.09,0,0,0-.86-2.64,7.7,7.7,0,0,1-.85-2.11,7.85,7.85,0,0,0-4-4.29c-4.55-2.56-11.23-.35-12.16.57C93.47,190.27,99.58,188.07,105.46,189.21Z"/><path class="cls-10" d="M119.07,278c1.14-7.08,3.26-11.68,2.27-15.57a139,139,0,0,0-8.61-22.94c-2.24-4.42-1.55-7.48.77-9.22,2.6-2,5.09-1.1,7.44,3.78,3,6.14,6.28,12.44,7.9,21.59.79,4.43,1.2,8.73-.22,17.84-1,6.37-3,9.94-5.42,15.92C122.54,291,118.1,284,119.07,278Z"/><path class="cls-17" d="M114.64,410.05c-2.55,2.08-6.53.64-6.72.83-2.61,2.61-6.49,4.89-9.38,7.16-1.59,1.26-4.08,2.93-3.63,5.34.81,4.32,7.71,3,10.31,1.67s4.73-3.5,7.2-5c1.75-1.09,3.48-1.66,3.76-3.88C116.34,414.8,115.1,410,114.64,410.05Z"/><path class="cls-18" d="M116.14,415.24c-.33,2.13-2,2.72-3.79,3.8-2.5,1.55-4.71,3.8-7.31,5.12-2.4,1.21-8.4,2.42-10.09-.65.92,4.15,7.7,2.85,10.27,1.54s4.73-3.5,7.2-5c1.75-1.09,3.48-1.66,3.76-3.88A4.24,4.24,0,0,0,116.14,415.24Z"/><path class="cls-17" d="M96.69,406.47c-2.34,1.9-5.87.83-6,1-2.38,2.39-5.92,4.44-8.56,6.52-1.47,1.15-3.74,2.69-3.33,4.9.74,4,7.06,2.73,9.44,1.52s4.33-3.2,6.59-4.61c1.61-1,3.19-1.51,3.44-3.55C98.38,411,97.11,406.42,96.69,406.47Z"/><path class="cls-18" d="M98.2,411.44c-.31,1.95-1.88,2.49-3.48,3.48-2.29,1.42-4.31,3.48-6.69,4.68-2.21,1.12-7.7,2.23-9.25-.59.84,3.81,7,2.61,9.41,1.41s4.33-3.2,6.59-4.61c1.61-1,3.19-1.51,3.44-3.55A3.92,3.92,0,0,0,98.2,411.44Z"/><path class="cls-10" d="M82.9,287.45c1.13-8.82,4.38-21.64,4.38-21.64a26,26,0,0,0,9.79,2.43c5.7.29,14.8-1.44,14.8-1.44a90.21,90.21,0,0,0,5.22,8.07c2.54,3.53,7.49,11.27,6.3,24.79-.79,8.83-5.74,46.34-5.74,46.34a70,70,0,0,1,3,19.46c0,5.45-1.48,14.72-3.09,23.3l-3,21.29s-3.92,2.84-6.72.83l.35-20.83c-.34-5.1-.85-12.63-1.17-17.43-.53-7.82-1.93-20.25-2.34-23.35s-1.4-8.52-1.87-14.6-2.76-36.95-2.76-36.95l-.32,5.78s-.3,9.39-1.65,21-1.82,16.72-1.82,16.72,2.34,4.3,2.64,7.48c.23,2.5,3.1,22.3,1.39,32.38l-3.52,25.61a6.72,6.72,0,0,1-6.06.8l-2.06-25.82C87.35,371.82,84.41,351,84,348.29c-.59-3.56-1.08-5.32-1.75-16.51S81.77,296.27,82.9,287.45Z"/><path class="cls-19" d="M111.89,263.55l7.59,15.26s11.6,17-.41,60.58l2.25,13.46s-22.73,14.59-37.95,0c0,0-5.28-40.31-2.47-58.9A214.16,214.16,0,0,1,88,262.38s3.73,4.11,22.9,1.39"/><path class="cls-16" d="M125.52,242.59s-5.28,5.25-11.54,4.6L111,237s-2-5.36,2.61-7.7S122.9,232.11,125.52,242.59Z"/><path class="cls-28" d="M43.85,263.56v0a.66.66,0,0,1,0,.2v0a.62.62,0,0,1,0,.23.47.47,0,0,1-.06.15.78.78,0,0,1-.05.14,1.67,1.67,0,0,1-.16.24.43.43,0,0,1,0,.07l-.13.14a.86.86,0,0,1-.13.14l-.17.16-.05,0a2.4,2.4,0,0,1-.26.18l0,0-.28.16,0,0-.29.12h-.05l-.27.08h0a1.87,1.87,0,0,1-.32,0,1.15,1.15,0,0,1-.76-.2,1.07,1.07,0,0,1-.14-.16L52.17,283.8a1,1,0,0,0,.9.36l.3,0h.06l.18,0,.09,0,0,0,0,0,.18-.07.06,0,0,0,.06,0,.17-.09,0,0,0,0,.07-.05.17-.12,0,0,0,0,.13-.1.05-.05.13-.15.07-.07.06-.07,0-.06a1.75,1.75,0,0,0,.16-.25v0a.42.42,0,0,0,0-.1.64.64,0,0,0,.06-.16v0a.47.47,0,0,0,0-.17v-.07s0,0,0-.06,0-.08,0-.12v0s0-.05,0-.07l-.05-.1h0l-11.62-18.4A.64.64,0,0,1,43.85,263.56Z"/><path class="cls-29" d="M42.88,263c.86,0,1.24.56.84,1.32a3,3,0,0,1-2.27,1.44c-.87,0-1.24-.55-.85-1.31A3,3,0,0,1,42.88,263Z"/><path class="cls-30" d="M22.35,230.72v0a.32.32,0,0,1,0,.14v0l0,.15s0,.08,0,.11a1,1,0,0,1,0,.1,1,1,0,0,1-.11.17l0,.05-.08.1-.1.1-.12.11,0,0-.19.13,0,0-.19.11h0l-.21.09h0l-.19.05h0a.83.83,0,0,1-.22,0,.81.81,0,0,1-.54-.14A.4.4,0,0,1,20,232l20.84,32.88a.69.69,0,0,0,.64.26,1.52,1.52,0,0,0,.21,0h0l.12,0,.07,0H42l.12-.06,0,0h0a.05.05,0,0,1,0,0l.12-.07,0,0,0,0,0,0,.12-.09h0l0,0,.09-.08,0,0,.1-.1.05-.06,0,0,0-.05a1.08,1.08,0,0,0,.11-.18h0l0-.08s0-.07,0-.11h0l0-.12v-.1s0-.06,0-.08v0h0s0,0,0-.05l0-.07h0L22.3,230.59A.69.69,0,0,1,22.35,230.72Z"/><path class="cls-31" d="M21.66,230.34c.61,0,.88.39.6.93a2.08,2.08,0,0,1-1.61,1c-.61,0-.88-.39-.6-.93A2.08,2.08,0,0,1,21.66,230.34Z"/><path class="cls-30" d="M9.14,210.78h0a.28.28,0,0,1,0,.09v0a.44.44,0,0,1,0,.1.19.19,0,0,1,0,.07l0,.06a.41.41,0,0,1-.07.11l0,0-.06.07-.06.06-.08.08h0l-.12.09h0l-.13.07h0l-.13.06h0l-.12,0h0l-.14,0a.52.52,0,0,1-.35-.09l-.06-.07,12.48,19.69a.43.43,0,0,0,.41.17l.14,0h0l.08,0,0,0h.05l.08,0H21l.07,0h0l0,0,.07-.06h0l0,0,.06,0,0,0,.07-.06,0,0,0,0,0,0,.07-.11h0s0,0,0,0l0-.07h0a.22.22,0,0,0,0-.08s0,0,0,0h0v0s0,0,0-.06h0s0,0,0,0a.08.08,0,0,0,0,0h0L9.1,210.69A.36.36,0,0,1,9.14,210.78Z"/><path class="cls-31" d="M8.69,210.53c.4,0,.57.25.39.6a1.34,1.34,0,0,1-1,.66c-.4,0-.57-.25-.39-.6A1.37,1.37,0,0,1,8.69,210.53Z"/><g class="cls-6"><polygon class="cls-32" points="12.49 213.56 15.6 211.76 15.59 212.64 12.48 214.45 12.49 213.56"/><polygon class="cls-33" points="4.21 208.79 7.32 206.98 15.6 211.76 12.49 213.56 4.21 208.79"/><polygon class="cls-34" points="12.49 213.56 12.48 214.45 4.21 209.67 4.21 208.79 12.49 213.56"/></g><path class="cls-11" d="M20.77,206.67l0,8.75a3.11,3.11,0,0,1,0,.32h0a1.6,1.6,0,0,1-.08.26h0a.66.66,0,0,1-.12.17.1.1,0,0,1,0,.05.7.7,0,0,1-.16.14l.86-.5.17-.14,0-.05a.18.18,0,0,0,.05-.07l.06-.1h0a.2.2,0,0,0,0-.08s0-.05,0-.08a.19.19,0,0,0,0-.07v0h0v0a2538684499554.69,2538684499554.69,0,0,0,0-.14v-.14h0l0-8.74Z"/><path class="cls-12" d="M21.64,206.1a.2.2,0,0,1,0-.07V206a.17.17,0,0,1,0-.07.22.22,0,0,1,0-.08h0s0-.05,0-.07,0,0,0-.08,0-.05,0-.08,0,0,0-.08l0-.06h0v0l0-.07,0-.08a.19.19,0,0,0,0-.07l0-.08,0-.05h0a.25.25,0,0,0,0-.07l0-.08a.41.41,0,0,1,0-.09.31.31,0,0,1-.05-.1h0v0l-.12-.18-.09-.13h0l-.07-.08-.06-.07-.05-.07-.06-.07h0l0-.05-.07-.06-.06-.06-.07-.06,0,0h0l0,0-.06,0-.07,0-.06,0-.06,0h0L2.39,193.33l0,0-.06,0-.07,0-.06,0-.06,0H2l-.06,0H1.92l-.06,0H1.55l-.1,0-.12.06-.87.5a.58.58,0,0,1,.22-.08h0a1,1,0,0,1,.25,0h0a1.4,1.4,0,0,1,.28.06h0a1.82,1.82,0,0,1,.3.13l17.75,10.25a1.94,1.94,0,0,1,.29.21h0a3.45,3.45,0,0,1,.28.26h0a2.48,2.48,0,0,1,.25.3h0c.08.11.15.22.22.33v0l.18.35h0a2.72,2.72,0,0,1,.13.37h0a2.83,2.83,0,0,1,.09.37h0a2.4,2.4,0,0,1,0,.37l.87-.5Z"/><path class="cls-13" d="M19.28,204.08a3.33,3.33,0,0,1,1.49,2.59l0,8.75c0,1-.68,1.33-1.51.85L1.49,206A3.3,3.3,0,0,1,0,203.44l0-8.75c0-.95.68-1.33,1.51-.86Z"/><g class="cls-6"><path class="cls-14" d="M18.36,205a1.41,1.41,0,0,1,.64,1.11c0,.41-.29.58-.64.37a1.42,1.42,0,0,1-.65-1.11C17.71,204.93,18,204.76,18.36,205Z"/><path class="cls-15" d="M19.13,204.35a2.63,2.63,0,0,1,1.2,2.09l0,8.75c0,.76-.55,1.07-1.21.69L1.93,206a2.67,2.67,0,0,1-1.21-2.09l0-8.75c0-.76.54-1.07,1.21-.69Zm-4.42,0c.35.21.65,0,.65-.36a1.43,1.43,0,0,0-.65-1.12c-.35-.2-.64,0-.64.37a1.39,1.39,0,0,0,.64,1.11m3.65,2.11c.35.21.64,0,.64-.37a1.41,1.41,0,0,0-.64-1.11c-.36-.21-.65,0-.65.37a1.42,1.42,0,0,0,.65,1.11m-1.83-1c.36.2.65,0,.65-.37a1.42,1.42,0,0,0-.64-1.11c-.36-.21-.65,0-.65.36a1.45,1.45,0,0,0,.64,1.12"/></g><path class="cls-14" d="M16.54,203.92a1.42,1.42,0,0,1,.64,1.11c0,.41-.29.57-.65.37a1.45,1.45,0,0,1-.64-1.12C15.89,203.88,16.18,203.71,16.54,203.92Z"/><path class="cls-14" d="M14.71,202.86a1.43,1.43,0,0,1,.65,1.12c0,.41-.3.57-.65.36a1.39,1.39,0,0,1-.64-1.11C14.07,202.82,14.36,202.66,14.71,202.86Z"/><path class="cls-33" d="M6.49,203.65l0,0,0,0-.05,0,0,0,0,0h0l0,0H5.8l-.09,0-.09,0-1,.6a.7.7,0,0,1,.39-.08H5a1.26,1.26,0,0,1,.48.17l5.84,3.37,1-.6Z"/><path class="cls-32" d="M13.53,209.06v-.17s0,0,0-.06v-.06s0-.05,0-.07,0,0,0-.06,0,0,0-.06l0-.06h0l0-.06,0-.06,0-.06,0-.06,0-.06,0-.06,0-.06,0-.08a.56.56,0,0,1-.05-.08h0v0l-.09-.15a1,1,0,0,1-.08-.11l-.05-.07s0,0,0-.05l-.05-.06,0-.05h0l0,0,0-.05-.06,0a.12.12,0,0,0-.05-.05l0,0-.06,0a.1.1,0,0,0-.05,0l0,0-.05,0h0l-1,.6a1.87,1.87,0,0,1,.47.38h0a2.48,2.48,0,0,1,.38.52h0a2.48,2.48,0,0,1,.25.58h0a1.78,1.78,0,0,1,.1.59v3.86l1-.6v-3.92Z"/><path class="cls-34" d="M11.29,207.63a2.65,2.65,0,0,1,1.21,2.09v3.86l-8.28-4.77,0-3.87c0-.76.54-1.07,1.22-.68Z"/><path class="cls-10" d="M44.17,267.51a1.48,1.48,0,0,1,1.11.8.78.78,0,0,1-.56,1.08,1.48,1.48,0,0,1,1.33,2.43,1.41,1.41,0,0,1,1.66.75,1.52,1.52,0,0,1-.49,1.7,2.84,2.84,0,0,1,1,.2.86.86,0,0,1,.52.9.89.89,0,0,1-.5.56,2.51,2.51,0,0,1-.77.15,5.88,5.88,0,0,1-.94.11,5.23,5.23,0,0,1-2.05-.29,4.45,4.45,0,0,1-1.92-2A16.16,16.16,0,0,1,41,270.77c-.36-.93-.84-2.38.2-3.07a2.42,2.42,0,0,1,1.25-.31A6.3,6.3,0,0,1,44.17,267.51Z"/><path class="cls-10" d="M45.06,268.17a1.09,1.09,0,0,0,.26,1.11.8.8,0,0,0,.83,0,2.29,2.29,0,0,0,.64-.6,6,6,0,0,0,.85-1.23c.36-.76.3-2.35-.91-2.05S45.22,267.24,45.06,268.17Z"/></g></g></svg>